<svg width="163" height="56" viewBox="0 0 163 56" fill="none" xmlns="http://www.w3.org/2000/svg">
<path d="M24.4834 39.5112V9.71777C24.0226 9.71777 22.8704 9.83348 21.7182 10.412C19.7596 11.3376 18.7802 13.0153 18.7802 15.3293V25.9161C18.7802 27.2467 18.8378 28.693 18.8954 29.7922L18.9531 30.4285L5.41516 11.4533H0V39.569C0.633689 39.569 2.93801 39.569 4.37821 38.007C5.29994 37.0236 5.76081 35.5773 5.7032 33.726V25.0484C5.7032 23.7178 5.64559 22.2715 5.58798 21.1723L5.53037 20.536L19.0107 39.5112H24.4834Z" fill="white"/>
<path d="M48.5049 29.9096C48.5049 34.9427 51.7885 40.0336 59.0472 40.0336C64.2895 40.0336 69.5894 36.9096 69.5894 29.9096C69.5894 22.9096 64.2895 19.7856 59.0472 19.7856C51.7885 19.7856 48.5049 24.8766 48.5049 29.9096ZM64.2319 29.9096C64.2319 33.2071 62.2156 35.3476 59.0472 35.3476C55.9363 35.3476 53.92 33.2071 53.92 29.9096C53.92 26.6121 55.9363 24.4716 59.0472 24.4716C62.2156 24.4716 64.2319 26.6121 64.2319 29.9096Z" fill="white"/>
<path d="M114.526 23.2575C112.855 21.1749 110.263 20.0757 106.979 20.0757C99.7779 20.0757 97.1855 26.1501 97.1855 30.1997C97.1855 36.3319 101.506 40.3236 108.246 40.3236C110.666 40.3236 111.76 39.8608 113.143 39.2245C113.431 39.1087 113.661 38.993 113.949 38.8773C113.949 38.8773 115.39 37.9517 115.332 36.4476C115.274 35.2327 114.526 34.8856 114.295 34.8278C113.949 34.9435 113.661 35.117 113.373 35.2906C112.106 35.9269 110.781 36.5633 108.995 36.5633C106.518 36.5633 104.502 35.9269 103.465 34.7699C102.774 34.0757 102.485 33.1501 102.543 32.1087V31.9352H116.254C116.887 28.5798 116.311 25.4559 114.526 23.2575ZM111.415 28.4063V28.5798H102.428V28.4063C102.485 25.8608 104.444 24.0674 107.152 24.0674C108.592 24.0674 109.744 24.5302 110.493 25.4558C111.357 26.3236 111.588 27.5963 111.415 28.4063Z" fill="white"/>
<path d="M44.301 23.2575C42.6303 21.1749 40.038 20.0757 36.7543 20.0757C29.5533 20.0757 26.9609 26.1501 26.9609 30.1997C26.9609 36.3319 31.2815 40.3236 38.0217 40.3236C40.4412 40.3236 41.5358 39.8608 42.9184 39.2245C43.2064 39.1087 43.4368 38.993 43.7249 38.8773C43.7249 38.8773 45.1651 37.9517 45.1075 36.3897C45.0499 35.1749 44.301 34.8278 44.0705 34.7699C43.7249 34.8856 43.4368 35.0592 43.0912 35.2327C41.8238 35.8691 40.4988 36.5054 38.713 36.5054C36.2358 36.5054 34.2196 35.8691 33.1826 34.7121C32.4913 34.0178 32.2033 33.0922 32.2609 32.0509V31.8773H45.9716C46.6629 28.5798 46.0868 25.4559 44.301 23.2575ZM41.2477 28.4063V28.5798H32.2033V28.4063C32.2609 25.8608 34.2196 24.0674 36.9271 24.0674C38.3673 24.0674 39.5195 24.5302 40.2684 25.4558C41.1325 26.3236 41.363 27.5963 41.2477 28.4063Z" fill="white"/>
<path d="M124.088 33.0907C121.438 32.9171 119.191 34.9998 119.076 37.6031C118.903 40.2642 120.919 42.5204 123.569 42.6361C123.684 42.6361 123.742 42.6361 123.857 42.6361C126.392 42.6361 128.466 40.6692 128.639 38.1237C128.696 36.851 128.293 35.6361 127.429 34.6527C126.507 33.727 125.355 33.1485 124.088 33.0907Z" fill="url(#paint0_linear)"/>
<path d="M118.27 42.462C117.521 42.5198 116.887 42.8669 116.427 43.3876C115.966 43.9661 115.735 44.6603 115.793 45.3545C115.908 46.743 117.06 47.8421 118.5 47.8421C118.558 47.8421 118.616 47.8421 118.731 47.8421C119.422 47.7843 120.114 47.4372 120.574 46.9165C121.035 46.338 121.266 45.6438 121.208 44.9496C121.035 43.4454 119.768 42.3463 118.27 42.462Z" fill="url(#paint1_linear)"/>
<path d="M118.5 18.3958C118.558 18.3958 118.615 18.3958 118.731 18.3958C119.422 18.338 120.113 17.9909 120.574 17.4702C121.035 16.8917 121.265 16.1975 121.208 15.5033C121.092 13.9991 119.825 12.9 118.327 13.0157C116.829 13.1314 115.735 14.462 115.85 15.9082C115.908 17.2388 117.117 18.3958 118.5 18.3958Z" fill="url(#paint2_linear)"/>
<path d="M150.013 46.4542C148.515 46.5699 147.42 47.9004 147.536 49.3467C147.651 50.7352 148.803 51.8343 150.243 51.8343C150.301 51.8343 150.358 51.8343 150.474 51.8343C151.971 51.7186 153.066 50.388 152.951 48.9418C152.836 47.4376 151.511 46.3385 150.013 46.4542Z" fill="url(#paint3_linear)"/>
<path d="M162.169 2.48766C162.053 0.983525 160.786 -0.115649 159.288 5.32875e-05C157.79 0.115756 156.696 1.44633 156.811 2.89262C156.926 4.28105 158.078 5.38022 159.519 5.38022C159.576 5.38022 159.634 5.38022 159.749 5.38022C161.189 5.32237 162.284 3.99179 162.169 2.48766Z" fill="url(#paint4_linear)"/>
<path d="M136.473 30.486C136.704 29.6183 136.992 28.6348 137.337 28.2877C137.683 27.9406 138.72 27.5356 139.699 27.1885C140.967 26.7257 142.119 26.2629 142.81 25.6265C144.654 23.7174 144.596 20.7092 142.695 18.8579C141.773 17.9902 140.621 17.5273 139.411 17.5273C138.086 17.5273 136.877 18.048 135.955 18.9736C135.321 19.6678 134.918 20.8827 134.515 22.1554C134.227 23.0811 133.881 24.1802 133.478 24.5273C133.074 24.9323 132.441 25.3951 131.749 25.3951C130.77 25.3951 129.791 24.7588 129.387 24.3538C129.042 24.0067 128.754 23.0232 128.466 22.2133C128.12 21.0563 127.717 19.8992 127.026 19.205C126.104 18.3373 124.952 17.8745 123.742 17.8745C122.417 17.8745 121.207 18.3951 120.285 19.3207C119.421 20.2464 118.903 21.4612 118.96 22.734C118.96 24.0067 119.479 25.2216 120.401 26.0893C121.092 26.7835 122.302 27.0728 123.396 27.4199C124.26 27.6513 125.24 27.9406 125.585 28.2877C125.931 28.6348 126.334 29.6761 126.68 30.6596C127.141 31.9323 127.602 33.0893 128.235 33.7836C129.099 34.6513 130.309 35.1141 131.519 35.1141C131.922 35.1141 132.268 35.0563 132.671 34.9984C133.593 34.8249 134.457 34.3621 135.148 33.61C135.84 32.8579 136.185 31.6431 136.473 30.486Z" fill="url(#paint5_linear)"/>
<path d="M147.88 43.1582C147.765 41.8276 146.728 40.902 145.173 40.6706C144.539 40.5549 144.02 38.9351 143.905 37.8359C143.963 36.5632 143.56 35.3483 142.695 34.4227C141.831 33.4971 140.679 32.9186 139.412 32.8607C136.762 32.6871 134.515 34.7698 134.4 37.3731C134.342 38.6458 134.746 39.8607 135.61 40.8442C136.474 41.7698 137.626 42.3483 138.893 42.4061C139.066 42.4061 139.297 42.4061 139.469 42.4061C139.585 42.4061 139.642 42.4061 139.757 42.4061C142.235 42.4061 142.407 43.0425 142.523 43.6789C142.811 45.1251 143.905 46.1086 145.23 46.1086C145.288 46.1086 145.345 46.1086 145.403 46.1086C146.152 46.0508 146.786 45.7037 147.247 45.183C147.707 44.6045 147.938 43.9103 147.88 43.1582Z" fill="url(#paint6_linear)"/>
<path d="M153.352 5.66814C152.027 5.78384 151.106 6.82516 150.875 8.38715C150.76 9.02351 149.147 9.54417 148.052 9.65987C145.46 9.54417 143.213 11.569 143.098 14.1723C143.041 15.445 143.444 16.6599 144.308 17.6433C145.172 18.569 146.324 19.1475 147.592 19.2053C147.707 19.2053 147.764 19.2053 147.88 19.2053C150.414 19.2053 152.488 17.2384 152.661 14.6929C152.661 14.5194 152.661 14.288 152.661 14.1144C152.661 13.9987 152.661 13.9409 152.661 13.8252C152.661 11.3376 153.295 11.164 153.929 11.0483C155.426 10.759 156.463 9.54417 156.348 8.15574C156.118 6.70946 154.85 5.55244 153.352 5.66814Z" fill="url(#paint7_linear)"/>
<path d="M94.8242 36.7931V15.0988C93.2687 13.3055 89.1786 10.7021 84.3395 10.7021C83.8786 10.7021 83.3602 10.7021 82.8993 10.76C77.945 11.3385 75.4102 13.9418 75.4102 18.5121V20.5947H71.8962C70.744 20.7104 69.8799 21.636 69.8799 22.7931C69.8799 23.9501 70.744 24.8757 71.8962 24.9914H72.0114H75.4102V40.6691H75.4679C76.2168 40.6691 78.1178 40.5534 79.3852 39.2228C80.1917 38.4129 80.595 37.2559 80.595 35.7517C80.595 33.8426 80.595 25.1071 80.595 25.1071V24.9336H86.5286V20.5369H80.6526V18.6856C80.6526 16.4873 81.9776 15.0988 84.2819 14.8096C86.0677 14.5782 88.0264 15.1567 89.4666 16.3137L89.5242 16.3716V40.6112C90.4459 40.6691 94.8242 40.2641 94.8242 36.7931Z" fill="white"/>
<defs>
<linearGradient id="paint0_linear" x1="123.365" y1="52.3407" x2="124.886" y2="5.38806" gradientUnits="userSpaceOnUse">
<stop stop-color="#F3B341"/>
<stop offset="0.00561523" stop-color="#F3B341"/>
<stop offset="0.1991" stop-color="#EB8740"/>
<stop offset="0.33" stop-color="#E7663E"/>
<stop offset="0.66" stop-color="#DF3661"/>
<stop offset="0.7322" stop-color="#D33768"/>
<stop offset="0.8742" stop-color="#B4387A"/>
<stop offset="1" stop-color="#943A8C"/>
</linearGradient>
<linearGradient id="paint1_linear" x1="118.242" y1="52.1744" x2="119.763" y2="5.2206" gradientUnits="userSpaceOnUse">
<stop stop-color="#F3B341"/>
<stop offset="0.00561523" stop-color="#F3B341"/>
<stop offset="0.1991" stop-color="#EB8740"/>
<stop offset="0.33" stop-color="#E7663E"/>
<stop offset="0.66" stop-color="#DF3661"/>
<stop offset="0.7322" stop-color="#D33768"/>
<stop offset="0.8742" stop-color="#B4387A"/>
<stop offset="1" stop-color="#943A8C"/>
</linearGradient>
<linearGradient id="paint2_linear" x1="117.359" y1="51.1862" x2="118.88" y2="4.2337" gradientUnits="userSpaceOnUse">
<stop stop-color="#F3B341"/>
<stop offset="0.00561523" stop-color="#F3B341"/>
<stop offset="0.1991" stop-color="#EB8740"/>
<stop offset="0.33" stop-color="#E7663E"/>
<stop offset="0.66" stop-color="#DF3661"/>
<stop offset="0.7322" stop-color="#D33768"/>
<stop offset="0.8742" stop-color="#B4387A"/>
<stop offset="1" stop-color="#943A8C"/>
</linearGradient>
<linearGradient id="paint3_linear" x1="150.115" y1="53.0056" x2="151.636" y2="6.05329" gradientUnits="userSpaceOnUse">
<stop stop-color="#F3B341"/>
<stop offset="0.00561523" stop-color="#F3B341"/>
<stop offset="0.1991" stop-color="#EB8740"/>
<stop offset="0.33" stop-color="#E7663E"/>
<stop offset="0.66" stop-color="#DF3661"/>
<stop offset="0.7322" stop-color="#D33768"/>
<stop offset="0.8742" stop-color="#B4387A"/>
<stop offset="1" stop-color="#943A8C"/>
</linearGradient>
<linearGradient id="paint4_linear" x1="157.964" y1="49.699" x2="159.485" y2="2.74586" gradientUnits="userSpaceOnUse">
<stop stop-color="#F3B341"/>
<stop offset="0.00561523" stop-color="#F3B341"/>
<stop offset="0.1991" stop-color="#EB8740"/>
<stop offset="0.33" stop-color="#E7663E"/>
<stop offset="0.66" stop-color="#DF3661"/>
<stop offset="0.7322" stop-color="#D33768"/>
<stop offset="0.8742" stop-color="#B4387A"/>
<stop offset="1" stop-color="#943A8C"/>
</linearGradient>
<linearGradient id="paint5_linear" x1="130.588" y1="51.6149" x2="132.109" y2="4.66117" gradientUnits="userSpaceOnUse">
<stop stop-color="#F3B341"/>
<stop offset="0.00561523" stop-color="#F3B341"/>
<stop offset="0.1991" stop-color="#EB8740"/>
<stop offset="0.33" stop-color="#E7663E"/>
<stop offset="0.66" stop-color="#DF3661"/>
<stop offset="0.7322" stop-color="#D33768"/>
<stop offset="0.8742" stop-color="#B4387A"/>
<stop offset="1" stop-color="#943A8C"/>
</linearGradient>
<linearGradient id="paint6_linear" x1="140.737" y1="52.7035" x2="142.258" y2="5.75038" gradientUnits="userSpaceOnUse">
<stop stop-color="#F3B341"/>
<stop offset="0.00561523" stop-color="#F3B341"/>
<stop offset="0.1991" stop-color="#EB8740"/>
<stop offset="0.33" stop-color="#E7663E"/>
<stop offset="0.66" stop-color="#DF3661"/>
<stop offset="0.7322" stop-color="#D33768"/>
<stop offset="0.8742" stop-color="#B4387A"/>
<stop offset="1" stop-color="#943A8C"/>
</linearGradient>
<linearGradient id="paint7_linear" x1="148.349" y1="51.254" x2="149.87" y2="4.30118" gradientUnits="userSpaceOnUse">
<stop stop-color="#F3B341"/>
<stop offset="0.00561523" stop-color="#F3B341"/>
<stop offset="0.1991" stop-color="#EB8740"/>
<stop offset="0.33" stop-color="#E7663E"/>
<stop offset="0.66" stop-color="#DF3661"/>
<stop offset="0.7322" stop-color="#D33768"/>
<stop offset="0.8742" stop-color="#B4387A"/>
<stop offset="1" stop-color="#943A8C"/>
</linearGradient>
</defs>
</svg>
